<?xml version="1.0" encoding="UTF-8"?>
<svg width="1063px" height="426px" viewBox="0 0 1063 426" version="1.1" xmlns="http://www.w3.org/2000/svg" xmlns:xlink="http://www.w3.org/1999/xlink">
    <!-- Generator: Sketch 61.2 (89653) - https://sketch.com -->
    <title>Group</title>
    <desc>Created with Sketch.</desc>
    <g id="Page-1" stroke="none" stroke-width="1" fill="none" fill-rule="evenodd">
        <g id="Design-eksternt" transform="translate(-530.000000, -436.000000)">
            <g id="Group" transform="translate(530.000000, 436.000000)">
                <path d="M381.05558,360.505078 C329.713369,320.554926 274.595508,272.631176 276.027313,207.565421 C277.564015,137.745867 329.160364,80.4539124 388.043459,42.9467089 C447.411984,5.12961591 519.434076,-12.6860123 586.01556,10.1085182 C653.107403,33.0783508 703.38787,90.0865469 724.013512,157.969733 C743.645793,222.581784 730.81133,294.648096 688.448349,347.232659 C650.842437,393.912385 586.699288,400.138615 526.83569,402.723545 C473.659489,405.019427 423.067711,393.195255 381.05558,360.505078 Z" id="Path-Copy-29" fill="#03DAC6"></path>
                <text id="Eksternt" font-family="Recoleta-Medium, Recoleta" font-size="60" font-weight="400" fill="#333333">
                    <tspan x="389.38" y="221">Eksternt</tspan>
                </text>
                <text id="Være-aktiv-og-synlig" font-family="Graphik-Bold, Graphik" font-size="20" font-weight="bold" fill="#000000">
                    <tspan x="769" y="64">Være aktiv og synlig </tspan>
                    <tspan x="769" y="90">bidragsytere i </tspan>
                    <tspan x="769" y="116">fagmiljøet</tspan>
                </text>
                <text id="Aktive-med-foredrag," font-family="Graphik-Bold, Graphik" font-size="20" font-weight="bold" fill="#000000">
                    <tspan x="61" y="370">Aktive med foredrag, </tspan>
                    <tspan x="61" y="396">bloggposter, kurs, </tspan>
                    <tspan x="61" y="422">videoer, podcast</tspan>
                </text>
                <text id="Synlige-i-sosiale-me" font-family="Graphik-Bold, Graphik" font-size="20" font-weight="bold" fill="#000000">
                    <tspan x="0" y="241">Synlige i sosiale </tspan>
                    <tspan x="0" y="267">medier/på nett</tspan>
                </text>
                <text id="Aktiv-og-engasjerte" font-family="Graphik-Bold, Graphik" font-size="20" font-weight="bold" fill="#000000">
                    <tspan x="61" y="109">Aktiv og </tspan>
                    <tspan x="61" y="135">engasjerte ute </tspan>
                    <tspan x="61" y="161">hos kunde</tspan>
                </text>
                <text id="Bredt-tjenestespekte" font-family="Graphik-Bold, Graphik" font-size="20" font-weight="bold" fill="#000000">
                    <tspan x="817" y="187">Bredt </tspan>
                    <tspan x="817" y="213">tjenestespekter</tspan>
                </text>
                <text id="Aktive-på-utdannings" font-family="Graphik-Bold, Graphik" font-size="20" font-weight="bold" fill="#000000">
                    <tspan x="812" y="295">Aktive på </tspan>
                    <tspan x="812" y="321">utdanningsinstitusjonene</tspan>
                </text>
                <text id="Oppleves-som-«noe-me" font-family="Graphik-Bold, Graphik" font-size="20" font-weight="bold" fill="#000000">
                    <tspan x="763" y="385">Oppleves som «noe mer» </tspan>
                    <tspan x="763" y="411">enn «bare» konsulenter</tspan>
                </text>
                <line x1="249.745016" y1="226" x2="197" y2="226" id="Path-2-Copy-5" stroke="#E61A6B" stroke-dasharray="6,6"></line>
                <line x1="352.745016" y1="364" x2="300" y2="364" id="Path-2-Copy-4" stroke="#E61A6B" stroke-dasharray="6,6"></line>
                <line x1="804.745016" y1="181" x2="752" y2="181" id="Path-2-Copy" stroke="#E61A6B" stroke-dasharray="6,6"></line>
                <line x1="732.745016" y1="54" x2="680" y2="54" id="Path-2" stroke="#E61A6B" stroke-dasharray="6,6"></line>
                <line x1="287.745016" y1="102" x2="235" y2="102" id="Path-2-Copy-3" stroke="#E61A6B" stroke-dasharray="6,6"></line>
                <line x1="799.745016" y1="282" x2="747" y2="282" id="Path-2-Copy-2" stroke="#E61A6B" stroke-dasharray="6,6"></line>
                <line x1="750.745016" y1="372" x2="698" y2="372" id="Path-2-Copy-6" stroke="#E61A6B" stroke-dasharray="6,6"></line>
            </g>
        </g>
    </g>
</svg>