<?xml version="1.0" encoding="UTF-8"?>
<svg width="753px" height="723px" viewBox="0 0 753 723" version="1.1" xmlns="http://www.w3.org/2000/svg" xmlns:xlink="http://www.w3.org/1999/xlink">
    <!-- Generator: Sketch 61.2 (89653) - https://sketch.com -->
    <title>Group</title>
    <desc>Created with Sketch.</desc>
    <g id="Page-1" stroke="none" stroke-width="1" fill="none" fill-rule="evenodd">
        <g id="Tjenestestrategier-Design" transform="translate(-693.000000, -145.000000)">
            <g id="Group" transform="translate(695.000000, 145.000000)">
                <path d="M390.833262,386.918261 C438.660888,379.815729 485.807253,407.495786 518.572977,443.019721 C550.12611,477.229834 559.50225,524.121456 560.280833,570.633104 C561.076251,618.145925 558.858867,671.460286 522.918838,702.588052 C488.118277,732.728311 436.676027,721.832095 390.833262,717.390677 C351.08712,713.540502 313.745641,703.589749 282.100446,679.258388 C244.678479,650.486134 196.701949,617.696055 199.957165,570.633104 C203.181355,524.018973 262.473312,508.468492 296.155975,476.04945 C328.620262,444.803435 346.243596,393.539926 390.833262,386.918261 Z" id="Path-Copy-17" fill-opacity="0.5" fill="#423D89"></path>
                <path d="M374.995905,0.307590058 C426.715904,2.05583237 477.576629,16.8582159 511.752031,55.6761182 C548.054284,96.9088994 570.35926,152.884317 555.988643,205.885089 C542.124701,257.016423 490.683817,282.553379 443.61812,306.962634 C393.807487,332.794983 339.406553,367.596849 288.131598,344.801301 C235.884893,321.573617 220.325871,258.467931 208.716071,202.530992 C197.492738,148.455204 191.029901,88.6959196 226.119866,46.0211608 C260.788906,3.85778641 320.40593,-1.53767481 374.995905,0.307590058 Z" id="Path-Copy-18" fill-opacity="0.9" fill="#EDE8D7"></path>
                <path d="M443.784558,504.125026 C399.025834,469.270253 350.975603,427.458862 352.223811,370.691816 C353.563465,309.777287 398.54374,259.792545 449.876398,227.069139 C501.632242,194.075367 564.419116,178.532005 622.463018,198.419243 C680.951836,218.459425 724.784961,268.1966 742.765828,327.421732 C759.880709,383.792941 748.691978,446.667669 711.761099,492.545416 C678.977302,533.271451 623.059073,538.703566 570.871638,540.958805 C524.514093,542.961862 480.409576,532.645786 443.784558,504.125026 Z" id="Path-Copy-20" fill-opacity="0.5" fill="#E61A6B"></path>
                <path d="M121.870679,562.038153 C70.4178897,538.168009 14.1941174,508.26332 2.65508108,452.69177 C-9.72677023,393.060026 22.8785593,334.2475 65.553403,290.817006 C108.579924,247.027893 166.278158,217.751508 227.315218,224.052095 C288.820251,230.401468 342.715035,268.975325 373.546668,322.611338 C402.893056,373.662648 406.116652,437.421258 380.433261,490.421185 C357.633947,537.469625 304.357766,555.351195 254.003699,569.298483 C209.274659,581.687469 163.973274,581.570451 121.870679,562.038153 Z" id="Path-Copy-19" stroke="#333333" stroke-width="4" fill-opacity="0.5" fill="#03DAC6" stroke-dasharray="8,8"></path>
                <text id="Utvikling-Copy-3" font-family="Recoleta-Medium, Recoleta" font-size="36" font-weight="400" fill="#333333">
                    <tspan x="90.6" y="421.8">Utvikling</tspan>
                </text>
                <text id="Prosjektledelse-Copy-4" font-family="Recoleta-Medium, Recoleta" font-size="36" font-weight="400" fill="#333333">
                    <tspan x="266.305216" y="176.4">Prosjektledelse</tspan>
                </text>
                <text id="Kurs-Copy-4" font-family="Recoleta-Medium, Recoleta" font-size="36" font-weight="400" fill="#333333">
                    <tspan x="359.305216" y="602.4">Kurs</tspan>
                </text>
                <text id="Design-Copy-4" font-family="Recoleta-Medium, Recoleta" font-size="36" font-weight="400" fill="#333333">
                    <tspan x="535.8" y="372.6">Design</tspan>
                </text>
            </g>
        </g>
    </g>
</svg>