<svg width="2381" height="5007" viewBox="0 0 2381 5007" fill="none" xmlns="http://www.w3.org/2000/svg">
<path fill-rule="evenodd" clip-rule="evenodd" d="M1541.19 3454.13C1749.25 3458.52 1923.51 3585.67 2059.5 3743.33C2204.26 3911.16 2338.13 4111.77 2296.19 4329.47C2252.97 4553.82 2053.42 4696.01 1854.41 4807.96C1632.2 4932.96 1384.15 5069.82 1147.18 4975.83C896.132 4876.25 731.136 4617.78 698.539 4349.49C669.142 4107.53 827.723 3898.28 994.705 3720.85C1140.9 3565.51 1328.01 3449.63 1541.19 3454.13Z" fill="#F1EDDF"/>
<path fill-rule="evenodd" clip-rule="evenodd" d="M749.144 2055.59C980.402 2047.28 1259.47 1880.05 1408.99 2056.66C1558.81 2233.62 1354.96 2483.32 1302.47 2709.15C1250.47 2932.87 1316.17 3231.08 1111.69 3335.69C906.127 3440.84 689.651 3237.72 487.57 3126.02C307.445 3026.45 106.908 2939.55 41.8151 2744.3C-30.361 2527.82 -17.3293 2261.22 146.173 2102.02C298.126 1954.06 537.194 2063.2 749.144 2055.59Z" fill="#EDE8D7"/>
<path fill-rule="evenodd" clip-rule="evenodd" d="M1558.81 188.217C1689.62 150.895 1801.5 97.2002 1922.32 130.698C2040.33 163.419 2045.72 204.109 2106.51 291.639C2163.36 373.492 2178.55 466.885 2200.19 562.475C2230.63 696.948 2328.15 827.397 2258.53 963.129C2183.53 1109.33 2015.37 1245.69 1831.2 1281.83C1650.35 1317.31 1521.49 1182.06 1355.25 1140.37C1195.81 1100.38 967.791 1155.61 879.125 1043.05C790.331 930.33 707.915 757.201 751.414 614.606C786.719 498.869 1042.61 395.009 1140.31 300.545C1234.84 209.135 1424.68 226.484 1558.81 188.217Z" fill="#EDE8D7"/>
</svg>
