<svg width="1440" height="359" viewBox="0 0 1440 359" fill="none" xmlns="http://www.w3.org/2000/svg">
<path fill-rule="evenodd" clip-rule="evenodd" d="M0 160.275L60 138.195C120 116.114 240 71.953 360 77.4731C480 82.9933 600 138.195 720 149.235C840 160.275 960 127.154 1080 132.674C1200 138.195 1320 182.356 1380 204.436L1440 226.517V359H1380C1320 359 1200 359 1080 359C960 359 840 359 720 359C600 359 480 359 360 359C240 359 120 359 60 359H0V160.275Z" fill="#E61A6B"/>
<path fill-rule="evenodd" clip-rule="evenodd" d="M0 145.28L60 159.528C120 173.776 240 202.272 360 209.396C480 216.52 600 202.272 720 159.528C840 116.784 960 45.5435 1080 17.0474C1200 -11.4486 1320 2.79942 1380 9.92343L1440 17.0474V359H1380C1320 359 1200 359 1080 359C960 359 840 359 720 359C600 359 480 359 360 359C240 359 120 359 60 359H0V145.28Z" fill="#1A1837"/>
</svg>
