<svg width="99" height="109" viewBox="0 0 198 219" fill="none"
  xmlns="http://www.w3.org/2000/svg">
  <path d="M197.538 203.12C179.794 196.014 160.434 191.138 141.261 186.31C96.0191 174.916 51.8178 163.784 32.3382 124.228C13.0414 85.0426 26.0932 42.5146 43.9271 0L197.538 0V203.12Z" fill="#03DAC6"/>
  <path d="M197.783 218.725C189.024 209.354 179.854 200.565 169.942 192.946C150.168 177.747 125.641 167.114 101.429 156.618C58.6237 138.063 16.8026 119.933 3.97197 77.7489C-4.11843 51.1493 0.944404 25.3312 12.0046 0L197.783 0V218.725Z" fill="#423D89"/>
  <path d="M86.597 40.395L83.33 49.2436L92.1675 45.9655L94.9694 48.7674L77.837 54.6923L83.8062 37.6042L86.597 40.395Z" fill="white"/>
  <path d="M104.217 58.0147L106.72 60.5176L95.9329 71.3042L93.43 68.8014L94.5596 67.6718C92.5736 67.6053 90.9899 66.9814 89.8086 65.8002C88.3172 64.3088 87.6232 62.5368 87.7266 60.4843C87.8595 58.4171 88.7492 56.5602 90.3956 54.9138C92.0125 53.2969 93.8435 52.4331 95.8886 52.3224C97.9337 52.2116 99.6835 52.8835 101.138 54.3379C102.393 55.5931 103.002 57.2358 102.965 59.2661L104.217 58.0147ZM92.9427 57.461C91.9091 58.4946 91.3443 59.6131 91.2483 60.8166C91.1597 62.0422 91.5473 63.0869 92.4112 63.9507C93.334 64.8736 94.3972 65.3018 95.6006 65.2354C96.8262 65.1468 97.9448 64.5967 98.9562 63.5852C99.9677 62.5738 100.518 61.4552 100.606 60.2296C100.68 59.0188 100.263 57.9593 99.3549 57.0512C98.4985 56.1948 97.4575 55.8035 96.2319 55.8773C95.0063 55.9659 93.9099 56.4938 92.9427 57.461Z" fill="white"/>
  <path d="M109.865 63.6628L112.357 66.1545L111.393 67.118C112.331 67.0959 113.065 67.1734 113.597 67.3506C114.143 67.5278 114.664 67.8637 115.158 68.3584C115.815 69.0155 116.288 69.9162 116.576 71.0606L113.154 72.2013C113.021 71.3891 112.729 70.7579 112.279 70.3075C110.921 68.949 109.215 69.296 107.163 71.3485L101.57 76.9412L99.0781 74.4494L109.865 63.6628Z" fill="white"/>
  <path d="M121.194 74.9921L110.407 85.7787L107.916 83.287L118.702 72.5003L121.194 74.9921ZM122.811 67.6385C123.247 67.2029 123.782 66.9851 124.417 66.9851C125.052 66.9851 125.591 67.2066 126.034 67.6496C126.484 68.1 126.709 68.6426 126.709 69.2776C126.717 69.9051 126.495 70.4441 126.045 70.8945C125.594 71.3448 125.052 71.57 124.417 71.57C123.789 71.5774 123.25 71.3559 122.8 70.9055C122.349 70.4552 122.124 69.9125 122.124 69.2776C122.124 68.6426 122.353 68.0963 122.811 67.6385Z" fill="white"/>
  <path d="M132.302 86.0999L134.805 88.6028L124.018 99.3894L121.515 96.8866L122.645 95.757C120.659 95.6905 119.075 95.0666 117.894 93.8853C116.402 92.394 115.708 90.622 115.812 88.5695C115.945 86.5023 116.834 84.6454 118.481 82.999C120.098 81.3821 121.929 80.5183 123.974 80.4076C126.019 80.2968 127.769 80.9687 129.223 82.4231C130.478 83.6783 131.087 85.321 131.05 87.3513L132.302 86.0999ZM121.028 85.5462C119.994 86.5798 119.429 87.6983 119.334 88.9018C119.245 90.1274 119.633 91.1721 120.496 92.0359C121.419 92.9588 122.482 93.387 123.686 93.3205C124.911 93.2319 126.03 92.6819 127.041 91.6704C128.053 90.6589 128.603 89.5404 128.692 88.3148C128.765 87.104 128.348 86.0445 127.44 85.1364C126.584 84.28 125.543 83.8887 124.317 83.9625C123.091 84.0511 121.995 84.579 121.028 85.5462Z" fill="white"/>
  <path d="M137.95 91.748L140.453 94.2508L139.456 95.2475C141.191 95.2549 142.605 95.8049 143.698 96.8976C144.953 98.1528 145.536 99.526 145.447 101.017C145.381 102.295 144.587 103.694 143.066 105.215L136.455 111.826L133.952 109.323L139.977 103.299C141.04 102.236 141.627 101.353 141.737 100.652C141.863 99.9505 141.545 99.2196 140.785 98.4592C139.958 97.6323 139.098 97.3185 138.205 97.5178C137.326 97.7172 136.215 98.4887 134.871 99.8324L129.666 105.037L127.163 102.535L137.95 91.748Z" fill="white"/>
  <path d="M150.641 109.091L142.18 117.552L139.689 115.06L148.15 106.599L147.086 105.536L149.412 103.21L150.475 104.273L154.429 100.32L156.921 102.811L152.967 106.765L154.905 108.703L152.579 111.029L150.641 109.091Z" fill="white"/>
</svg>
