<svg xmlns="http://www.w3.org/2000/svg" width="327" height="81" fill="none"><g clip-path="url(#a)"><mask id="b" width="326" height="81" x="0" y="0" maskUnits="userSpaceOnUse" style="mask-type:alpha"><path fill="#000" d="M13.25 28.001 25.998 55.85 38.698 28h12.8L25.898 81 .5 28.001h12.75ZM93.743 28.001h11.434V77.59H93.743v-5.193c-4.688 4.412-9.73 6.618-15.127 6.618-6.813 0-12.446-2.477-16.898-7.433-4.419-5.057-6.628-11.37-6.628-18.939 0-7.433 2.21-13.627 6.628-18.582 4.418-4.956 9.95-7.433 16.594-7.433 5.734 0 10.878 2.376 15.431 7.127v-5.753ZM66.727 52.642c0 4.752 1.264 8.621 3.794 11.608 2.597 3.02 5.869 4.531 9.815 4.531 4.216 0 7.623-1.46 10.22-4.378 2.597-3.02 3.896-6.856 3.896-11.506s-1.299-8.485-3.896-11.506c-2.597-2.953-5.97-4.43-10.119-4.43-3.912 0-7.184 1.494-9.815 4.48-2.597 3.022-3.895 6.755-3.895 11.201ZM119.546 28.001h11.383v4.43c2.092-2.207 3.947-3.717 5.566-4.532 1.652-.848 3.609-1.272 5.868-1.272 3.002 0 6.139.984 9.411 2.953l-5.211 10.487c-2.159-1.561-4.267-2.342-6.325-2.342-6.206 0-9.309 4.718-9.309 14.154v25.71h-11.383V28ZM171.303 28.001V77.59h-11.384V28h11.384ZM158.199 7.382c0-2.002.725-3.733 2.176-5.193C161.825.73 163.562 0 165.586 0c2.057 0 3.811.73 5.261 2.19 1.451 1.425 2.176 3.173 2.176 5.243 0 2.07-.725 3.835-2.176 5.295-1.416 1.46-3.153 2.189-5.211 2.189-2.057 0-3.811-.73-5.261-2.19-1.451-1.459-2.176-3.24-2.176-5.345ZM222.048 28.001h11.434V77.59h-11.434v-5.193c-4.689 4.412-9.731 6.618-15.128 6.618-6.813 0-12.446-2.477-16.898-7.433-4.418-5.057-6.627-11.37-6.627-18.939 0-7.433 2.209-13.627 6.627-18.582 4.419-4.956 9.95-7.433 16.595-7.433 5.734 0 10.877 2.376 15.431 7.127v-5.753Zm-27.017 24.641c0 4.752 1.265 8.621 3.794 11.608 2.598 3.02 5.869 4.531 9.816 4.531 4.216 0 7.622-1.46 10.219-4.378 2.597-3.02 3.896-6.856 3.896-11.506s-1.299-8.485-3.896-11.506c-2.597-2.953-5.97-4.43-10.118-4.43-3.913 0-7.185 1.494-9.815 4.48-2.598 3.022-3.896 6.755-3.896 11.201ZM247.85 28.001h11.434v4.582c3.98-3.97 8.466-5.956 13.458-5.956 5.734 0 10.203 1.816 13.407 5.447 2.766 3.089 4.149 8.129 4.149 15.12V77.59h-11.434V49.893c0-4.887-.675-8.264-2.024-10.131-1.315-1.9-3.71-2.851-7.184-2.851-3.778 0-6.459 1.256-8.044 3.767-1.552 2.478-2.328 6.805-2.328 12.983v23.928H247.85V28ZM316.455 38.693v38.896h-11.384V38.693h-4.857V28h4.857V9.826h11.384V28h8.854v10.692h-8.854Z"/></mask><g mask="url(#b)"><path fill="#03DAC6" fill-rule="evenodd" d="M327 81H-6V-9h333v90Z" clip-rule="evenodd"/><path fill="#03DAC6" fill-rule="evenodd" d="m737.139 431.727-3.269 27.14-85.704 37.357h-66.485l-62.848 70.561-162.058-189.731-46.229 43.382-58.299-127.364s-1.713-17.974 14.235-35.796c11.096-12.396 42.858-19.046 42.858-19.046s-26.75-24.256-42.152-51.974c-13.944-25.099-22.562-52.068-21.278-69.494C250.296 57.174 335.997.615 335.997.615l23.375 20.494s92.975 134.85 89.339 224.228c0 0 45.894-30.747 104.756 2.398 58.859 33.146 20.389 19.765 32.489 43.083 26.173 50.447-15.445 113.011 15.001 145.483 15.382 16.408 43.954 19.893 65.496 14.659 25.17-6.114 42.36-22.698 42.36-22.698l-5.588-49.118 33.914 52.583Z" clip-rule="evenodd"/><path fill="#FFC4BC" fill-rule="evenodd" d="M192.691 83.294S154.508 54.43 152.583 23.41c-1.414-22.795 9.27-55.18 54.897-68.185 0 0-30.452-36.043-94.489-52.73L84.889-70.152 76.136 45.743l112.409 67.22 4.146-29.67Z" clip-rule="evenodd"/><path fill="#352F6C" fill-rule="evenodd" d="M367.346 15.833S332.827-16.6 284.049-.207c0 0-82.931 65.601-103.69 81.596-20.757 15.993-22.404 24.597-6.738 47.178 15.665 22.58 24.587 31.554 57.291 4.345 32.704-27.209 136.434-117.079 136.434-117.079Z" clip-rule="evenodd"/><path fill="#352F6C" d="M-21 5h44v46h-44z"/><path fill="#E61A6B" fill-rule="evenodd" d="M83.955-97.505c9.58-37.591-49.278-19.654-53.431-60.049-4.152-40.393 32.949-59.64 32.949-59.64s-55.829-32.5-80.284-72.431c-24.454-39.929-34.143-71.037-34.143-71.037s7.844 31.108-48.448 41.322c-26.609 4.829-49.831 15.928-55.367 32.502-6.173 18.487-8.651 57.706 21.273 85.125 56.753 52.004 79.773 92.701 79.773 92.701s67.827-2.785 72.44 74.288c2.554 42.66 24.679 71.904-4.358 79.871-29.036 7.967 13.442 70.89 33.426 78.562 44.756 17.178 77.978-.105 77.978-.105l35.274-42.312s-56.75-6.671-80.03-48.692C56.814-11.065 73.71-57.31 83.955-97.505Z" clip-rule="evenodd"/></g></g><defs><clipPath id="a"><path fill="#fff" d="M.5 0h326v81H.5z"/></clipPath></defs></svg>